<svg width="128" height="107" viewBox="0 0 128 107" fill="none" xmlns="http://www.w3.org/2000/svg">
<g filter="url(#filter0_d_18_4)">
<path d="M35.526 86.6999C44.6612 98.5165 65.3002 99.8295 75.1121 98.5165C45.6763 79.8069 50.7514 45.3418 49.7364 36.4794C48.7214 27.617 42.6312 1.02963 0 2.99906C20.3006 17.179 25.3757 41.7312 25.3757 52.2349C25.3757 58.4714 26.3333 74.809 35.526 86.6999Z" fill="#7D7E81"/>
<path d="M113.798 21.7805C120.726 14.2795 118.873 1.1015 115.828 -2.83737C106.693 20.7958 83.3469 13.9028 75.2267 16.857C67.1065 19.8111 54.9261 26.7041 56.254 56.0089C63.9261 43.1286 69.1365 38.5207 90.4521 34.5818C102.632 31.6277 107.593 28.4979 113.798 21.7805Z" fill="#F26529"/>
<path d="M106.202 49.9062C111.787 44.9206 111.604 37.0001 109.63 34.5114C100.96 49.2359 84.0195 44.7441 77.7122 46.5318C71.405 48.3194 61.7532 52.5419 60.4747 70.896C67.2162 62.8914 71.4737 60.0465 87.7342 57.7425C97.0805 55.9856 101.503 54.1005 106.202 49.9062Z" fill="#F26529"/>
</g>
<defs>
<filter id="filter0_d_18_4" x="-4" y="-2.83737" width="126.553" height="109.764" filterUnits="userSpaceOnUse" color-interpolation-filters="sRGB">
<feFlood flood-opacity="0" result="BackgroundImageFix"/>
<feColorMatrix in="SourceAlpha" type="matrix" values="0 0 0 0 0 0 0 0 0 0 0 0 0 0 0 0 0 0 127 0" result="hardAlpha"/>
<feOffset dy="4"/>
<feGaussianBlur stdDeviation="2"/>
<feComposite in2="hardAlpha" operator="out"/>
<feColorMatrix type="matrix" values="0 0 0 0 0 0 0 0 0 0 0 0 0 0 0 0 0 0 0.25 0"/>
<feBlend mode="normal" in2="BackgroundImageFix" result="effect1_dropShadow_18_4"/>
<feBlend mode="normal" in="SourceGraphic" in2="effect1_dropShadow_18_4" result="shape"/>
</filter>
</defs>
</svg>
