<svg width="70" height="70" viewBox="0 0 70 70" fill="none" xmlns="http://www.w3.org/2000/svg">
<circle cx="35" cy="35" r="34" fill="#C4C4C4" stroke="#2CA3AB" stroke-width="2"/>
<path d="M35 55C44.9247 55 53 47.0819 53 37.3503C53 30.9916 49.5492 25.4152 44.3901 22.3098C43.1787 21.5806 41.75 22.5362 41.75 23.95V24.7384C41.75 25.459 42.1446 26.1142 42.7388 26.5218C44.3492 27.6265 45.6982 29.0656 46.6868 30.7418C47.8715 32.7507 48.4968 35.0297 48.5 37.3503C48.5 44.6506 42.4453 50.5876 35 50.5876C27.5547 50.5876 21.5 44.6506 21.5 37.3503C21.503 35.0296 22.1282 32.7506 23.3129 30.7416C24.3015 29.0654 25.6506 27.6264 27.2611 26.5218C27.8554 26.1142 28.25 25.4589 28.25 24.7383V23.95C28.25 22.5362 26.8213 21.5806 25.6099 22.3098C20.4508 25.4152 17 30.9916 17 37.3503C17 47.0819 25.0753 55 35 55Z" fill="black"/>
<path d="M33.1875 18C33.1875 17.4477 33.6352 17 34.1875 17H36.8125C37.3648 17 37.8125 17.4477 37.8125 18V38.1321C37.8125 38.6844 37.3648 39.1321 36.8125 39.1321H34.1875C33.6352 39.1321 33.1875 38.6844 33.1875 38.1321V18Z" fill="black"/>
</svg>
