<svg width="70" height="70" viewBox="0 0 70 70" fill="none" xmlns="http://www.w3.org/2000/svg">
<circle cx="35" cy="35" r="34" fill="#C4C4C4" stroke="#2CA3AB" stroke-width="2"/>
<path fill-rule="evenodd" clip-rule="evenodd" d="M31.7118 15.3682L13.1513 31.3682C10.9241 33.7682 12.2232 36.8682 14.5433 36.8682H16.3993C16.6556 36.8682 16.8633 37.074 16.8633 37.3303V52.3682C16.8633 55.1047 18.9317 55.5169 20.0362 55.3786C20.0867 55.3723 20.1348 55.3682 20.1857 55.3682H49.3445C52.3142 55.7682 53.0566 53.5348 53.0566 52.3682V37.8682L53.0563 37.7692C53.0542 37.2634 53.0526 36.8682 53.5715 36.8682L54.9127 36.8682C58.6248 36.4682 58.4206 32.8682 57.2327 31.8682C56.0493 30.8719 54.5245 29.5917 52.8334 28.1765V16C52.8334 15.4477 52.3857 15 51.8334 15H46.4092C45.8569 15 45.4092 15.4477 45.4092 16V21.9933C42.1099 19.2616 39.0516 16.7565 37.28 15.3682C34.4961 12.8681 32.64 14.3681 31.7118 15.3682ZM29.25 31.4474C29.25 34.4507 31.6055 36.8948 34.5 36.8948C37.3945 36.8948 39.75 34.4507 39.75 31.4474C39.75 28.4441 37.3945 26 34.5 26C31.6055 26 29.25 28.4441 29.25 31.4474ZM43.8333 49H45V47.7895C45 43.1181 41.3355 39.3158 36.8333 39.3158H32.1667C27.6633 39.3158 24 43.1181 24 47.7895V49H43.8333Z" fill="#030303"/>
</svg>
